<svg width="110" height="110" viewBox="0 0 110 110" fill="none" xmlns="http://www.w3.org/2000/svg">
<path fill-rule="evenodd" clip-rule="evenodd" d="M55 110C85.3757 110 110 85.3757 110 55C110 24.6243 85.3757 0 55 0C24.6243 0 0 24.6243 0 55C0 85.3757 24.6243 110 55 110Z" fill="url(#paint0_linear)"/>
<path fill-rule="evenodd" clip-rule="evenodd" d="M30.6798 56.4536L32.6735 55.3958C32.1166 54.2625 31.9031 53.0764 31.9987 51.9436L29.1246 53.4684C28.8348 53.6222 28.6432 53.4923 28.7002 53.1572L29.5066 48.4123C29.5619 48.0866 29.4235 47.6423 29.1823 47.4049L25.7664 44.0446C25.5319 43.814 25.5951 43.5898 25.9285 43.5409L30.6492 42.8487C30.9731 42.8011 31.3491 42.531 31.4982 42.2261L33.6094 37.9091C33.7543 37.6128 33.985 37.6042 34.1342 37.9091L36.2452 42.2261C36.3901 42.5224 36.7609 42.7998 37.0944 42.8487L41.8149 43.5409C42.139 43.5884 42.2184 43.8073 41.9772 44.0446L40.2275 45.7657L44.7329 45.105C44.8383 45.0896 45.1003 44.9259 45.3334 44.7502C45.8865 42.7488 44.6324 40.5461 42.2955 40.2034L38.7212 39.6793L37.1307 36.4165C35.7473 33.5876 31.9751 33.6306 30.6127 36.4165L29.0375 39.6377L25.448 40.2034C22.3545 40.6571 21.2294 44.2911 23.4337 46.4596L26.0908 49.0735L25.4065 52.587C24.8781 55.6964 27.955 57.8993 30.6798 56.4536ZM67.2202 40.2034C64.8513 40.5508 63.6367 42.763 64.1875 44.754C64.4192 44.9283 64.6782 45.0897 64.7827 45.105L69.2881 45.7657L67.5386 44.0446C67.3042 43.814 67.3672 43.5898 67.7007 43.5409L72.4214 42.8487C72.7454 42.8011 73.1213 42.531 73.2705 42.2261L75.3816 37.9091C75.5264 37.6128 75.7573 37.6042 75.9062 37.9091L78.0176 42.2261C78.1624 42.5224 78.5332 42.7998 78.8665 42.8487L83.5872 43.5409C83.9111 43.5884 83.9907 43.8073 83.7493 44.0446L80.3335 47.4049C80.0989 47.6356 79.9521 48.0771 80.009 48.4123L80.8154 53.1572C80.8708 53.4828 80.6892 53.6267 80.3909 53.4684L77.5168 51.9435C77.6116 53.0665 77.4026 54.2417 76.8567 55.3658L78.8359 56.4536C81.6028 57.9216 84.6296 55.6491 84.1091 52.587L83.4907 48.9486L86.082 46.4596C88.3203 44.2576 87.1143 40.6502 84.0676 40.2034L80.4934 39.6793L78.9031 36.4165C77.5195 33.5876 73.7473 33.6306 72.3848 36.4165L70.8096 39.6377L67.2202 40.2034ZM56.165 72.794C55.5034 72.4429 54.0117 72.4431 53.3506 72.794L47.2911 76.0089C43.2032 78.1778 39.2655 75.2876 40.0458 70.6964L41.203 63.887C41.3293 63.1434 40.8683 61.7119 40.3333 61.1855L35.431 56.3631C32.124 53.1098 33.6307 48.4371 38.1986 47.7673L44.9731 46.7738C45.713 46.6653 46.9196 45.7804 47.2502 45.1042L50.2798 38.9088C52.3237 34.7293 57.1929 34.7316 59.2356 38.9088L62.2654 45.1042C62.5962 45.7807 63.803 46.6653 64.5425 46.7738L71.3169 47.7673C75.8872 48.4375 77.3896 53.1116 74.0845 56.3631L69.1824 61.1855C68.647 61.7122 68.1863 63.1438 68.3125 63.887L69.4697 70.6964C70.2505 75.2902 66.3101 78.1766 62.2244 76.0089L56.165 72.794ZM66.1763 71.2665C66.4885 73.105 65.4136 73.8907 63.7795 73.0237L57.7202 69.8088C56.0842 68.9407 53.4294 68.9418 51.7954 69.8088L45.7361 73.0237C44.1 73.8918 43.0273 73.1028 43.3395 71.2665L44.4967 64.4571C44.8092 62.6186 43.9879 60.071 42.6659 58.7705L37.7637 53.9481C36.4401 52.646 36.8522 51.3727 38.6792 51.1047L45.4537 50.1113C47.283 49.843 49.4299 48.2675 50.2468 46.5967L53.2766 40.4014C54.0947 38.7286 55.4219 38.7306 56.239 40.4014L59.2688 46.5967C60.0867 48.2695 62.2349 49.8434 64.062 50.1113L70.8364 51.1047C72.6658 51.373 73.074 52.6476 71.752 53.9481L66.8499 58.7705C65.5261 60.0725 64.7068 62.6208 65.0188 64.4571L66.1763 71.2665Z" fill="#7BA0BA"/>
<defs>
<linearGradient id="paint0_linear" x1="50.1485" y1="-23.7597" x2="-19.7088" y2="72.6871" gradientUnits="userSpaceOnUse">
<stop stop-color="#F6F6EF"/>
<stop offset="1" stop-color="#CFE6F7"/>
</linearGradient>
</defs>
</svg>
