<svg width="25" height="25" viewBox="0 0 25 25" fill="none" xmlns="http://www.w3.org/2000/svg">
<path fill-rule="evenodd" clip-rule="evenodd" d="M0.223267 12.5C0.223267 5.71436 5.71436 0.223267 12.5 0.223267C19.2858 0.223267 24.7769 5.71436 24.7769 12.5C24.7769 19.2858 19.2858 24.7769 12.5 24.7769C5.71436 24.7769 0.223267 19.2858 0.223267 12.5ZM2.45544 12.5001C2.45544 18.0358 6.96436 22.5447 12.5001 22.5447C18.0358 22.5447 22.5447 18.0358 22.5447 12.5001C22.5447 6.96436 18.0358 2.45544 12.5001 2.45544C6.96436 2.45544 2.45544 6.96436 2.45544 12.5001Z" fill="#455D6E"/>
<path d="M16.1608 8.74998L11.0268 13.8839L8.83934 11.6964C8.39291 11.25 7.67862 11.25 7.27684 11.6964C6.83041 12.1428 6.83041 12.8571 7.27684 13.2589L10.2679 16.25C10.4911 16.4732 10.759 16.5625 11.0715 16.5625C11.384 16.5625 11.6518 16.4732 11.8751 16.25L17.8126 10.3125C18.259 9.86605 18.259 9.15177 17.8126 8.74998C17.3215 8.30355 16.6072 8.30355 16.1608 8.74998Z" fill="#455D6E"/>
</svg>
