<svg width="110" height="110" viewBox="0 0 110 110" fill="none" xmlns="http://www.w3.org/2000/svg">
<path fill-rule="evenodd" clip-rule="evenodd" d="M55 110C85.3757 110 110 85.3757 110 55C110 24.6243 85.3757 0 55 0C24.6243 0 0 24.6243 0 55C0 85.3757 24.6243 110 55 110Z" fill="url(#paint0_linear)"/>
<path fill-rule="evenodd" clip-rule="evenodd" d="M43.9229 59.3555H41.9645C39.3218 59.3555 36.7872 58.3062 34.9186 56.4385C33.0498 54.5709 32 52.0378 32 49.3965C31.9999 47.3589 32.6675 45.3774 33.9008 43.7549C33.533 42.1102 33.6328 40.3954 34.1887 38.8042C35.0133 36.5225 36.7318 34.6747 38.9486 33.6864C41.1653 32.6981 43.6891 32.6545 45.9387 33.5657C49.4518 27.61 56.5111 24.7315 63.1899 26.5313C69.8689 28.3311 74.5236 34.3661 74.5649 41.2796V41.5099C77.3147 43.2167 78.9907 46.2189 79 49.454C78.9683 54.9317 74.5164 59.3556 69.0355 59.3555H67.0771V61.4854C67.0771 64.7667 62.1814 66.3786 56.9399 66.6088V69.8901C58.6613 70.4478 60.0106 71.7965 60.5686 73.5168H66.6741C67.5043 71.4059 69.7192 70.1836 71.949 70.6059C74.1787 71.0282 75.7926 72.9757 75.7926 75.2438C75.7926 77.5119 74.1787 79.4594 71.949 79.8817C69.7192 80.304 67.5043 79.0817 66.6741 76.9708H60.5686C59.8019 79.277 57.6436 80.8333 55.212 80.8333C52.7804 80.8333 50.6222 79.277 49.8553 76.9708H43.2316C42.4014 79.0817 40.1864 80.304 37.9567 79.8817C35.7269 79.4594 34.113 77.5119 34.113 75.2438C34.113 72.9757 35.7269 71.0282 37.9567 70.6059C40.1864 70.1836 42.4014 71.4059 43.2316 73.5168H49.8553C50.425 71.7832 51.7983 70.4321 53.5416 69.8901V66.6088C48.473 66.2634 43.9229 64.6516 43.9229 61.4854V59.3555ZM63.6788 48.9935C61.057 49.9327 58.2844 50.3816 55.5 50.3175C52.7155 50.3816 49.943 49.9327 47.321 48.9935V53.0232C47.7819 53.5988 50.5465 54.8653 55.5 54.8653C60.4534 54.8653 63.2181 53.5988 63.6788 53.0232V48.9935ZM47.4939 45.1365C48.2427 44.5033 50.9498 43.4095 55.5 43.4095C60.0503 43.4095 62.8149 44.5033 63.5061 45.1365C62.7573 45.7698 60.0503 46.8635 55.5 46.8635C50.9498 46.8635 48.1851 45.7698 47.4939 45.1941V45.1365ZM37.6382 75.698C37.849 76.1762 38.3319 76.4759 38.8541 76.4527C39.5098 76.4235 40.0345 75.899 40.0637 75.2438C40.087 74.7218 39.7871 74.2391 39.3087 74.0285C38.8302 73.8179 38.2715 73.9225 37.9019 74.292C37.5321 74.6614 37.4275 75.2199 37.6382 75.698ZM71.0515 73.9773C71.5686 73.9538 72.048 74.247 72.2625 74.7179C72.4768 75.1888 72.3831 75.7427 72.0256 76.1169C71.6682 76.4912 71.119 76.6105 70.6384 76.4183C70.1578 76.2262 69.8424 75.7611 69.8419 75.2438C69.8412 74.5662 70.3743 74.0081 71.0515 73.9773ZM53.1849 76.0095C53.52 76.834 54.3215 77.3734 55.2119 77.3738C56.3987 77.3742 57.3695 76.4294 57.4006 75.2438C57.4241 74.3542 56.906 73.539 56.0902 73.1822C55.2745 72.8254 54.3239 72.9981 53.6858 73.6189C53.0479 74.2398 52.8499 75.185 53.1849 76.0095ZM55.5 63.2124C50.6041 63.2124 47.7819 61.946 47.321 61.3703V56.9952C49.943 57.9345 52.7155 58.3833 55.5 58.3193C58.2844 58.3833 61.057 57.9345 63.6788 56.9952V61.3703C63.2181 61.946 60.3958 63.2124 55.5 63.2124ZM37.7598 44.6185L37.0686 45.3668C36.0272 46.4726 35.45 47.9355 35.4558 49.454C35.4874 53.0242 38.3922 55.9016 41.9645 55.9015H43.8651V45.3668V45.1366C43.8651 41.5674 49.6826 39.9556 55.5 39.9556C61.3174 39.9556 67.1348 41.5674 67.1348 45.1366V45.3668V55.9015H69.0355C72.6077 55.9016 75.5125 53.0242 75.5441 49.454C75.5532 47.1291 74.202 45.0134 72.0883 44.0428L70.9363 43.5247L71.0514 42.2582C71.0889 41.9141 71.108 41.5682 71.109 41.222C71.0511 35.5946 67.062 30.7747 61.5421 29.6631C56.0222 28.5513 50.4767 31.4508 48.2427 36.6167L47.4363 38.574L45.7083 37.3651C44.3167 36.3835 42.547 36.1057 40.9213 36.6134C39.2955 37.1212 37.999 38.3567 37.4142 39.9556C36.9878 41.1467 36.9878 42.4487 37.4142 43.6398L37.7598 44.6185Z" fill="#7BA0BA"/>
<defs>
<linearGradient id="paint0_linear" x1="50.1485" y1="-23.7597" x2="-19.7088" y2="72.6871" gradientUnits="userSpaceOnUse">
<stop stop-color="#F6F6EF"/>
<stop offset="1" stop-color="#CFE6F7"/>
</linearGradient>
</defs>
</svg>
