<?xml version="1.0" encoding="UTF-8"?>
<svg width="138px" height="85px" viewBox="0 0 138 85" version="1.1" xmlns="http://www.w3.org/2000/svg" xmlns:xlink="http://www.w3.org/1999/xlink">
    <!-- Generator: Sketch 50.2 (55047) - http://www.bohemiancoding.com/sketch -->
    <title>logo_TMS</title>
    <desc>Created with Sketch.</desc>
    <defs></defs>
    <g id="Page-1" stroke="none" stroke-width="1" fill="none" fill-rule="evenodd">
        <g id="TMS" transform="translate(-670.000000, -69.000000)">
            <g id="logo_TMS" transform="translate(670.000000, 69.000000)">
                <path d="M3.372,82.2 L3.372,73.902 L1.806,73.902 C0.852,73.902 0.186,73.272 0.186,72.282 C0.186,71.292 0.852,70.662 1.806,70.662 L8.538,70.662 C9.492,70.662 10.158,71.292 10.158,72.282 C10.158,73.272 9.492,73.902 8.538,73.902 L6.972,73.902 L6.972,82.2 C6.972,83.28 6.252,84 5.172,84 C4.092,84 3.372,83.28 3.372,82.2 Z M13.038,82.2 C13.038,83.28 12.318,84 11.238,84 C10.158,84 9.438,83.28 9.438,82.2 L9.438,75.288 C9.438,74.208 10.158,73.488 11.238,73.488 C11.904,73.488 12.408,73.74 12.732,74.244 C13.434,73.596 14.262,73.272 15.198,73.272 L15.27,73.272 C16.35,73.272 17.07,73.992 17.07,75.072 C17.07,76.098 16.35,76.818 15.27,76.818 L14.802,76.818 C13.812,76.818 13.038,77.682 13.038,78.762 L13.038,82.2 Z M27.726,75.288 L27.726,82.2 C27.726,83.28 27.006,84 25.926,84 C25.206,84 24.684,83.73 24.36,83.172 C23.514,83.892 22.506,84.252 21.336,84.252 C19.878,84.252 18.744,83.712 17.898,82.632 C17.052,81.552 16.638,80.256 16.638,78.762 C16.638,77.268 17.052,75.972 17.898,74.892 C18.744,73.812 19.878,73.272 21.336,73.272 C22.434,73.272 23.442,73.65 24.324,74.406 C24.63,73.794 25.17,73.488 25.926,73.488 C27.006,73.488 27.726,74.208 27.726,75.288 Z M20.958,77.394 C20.598,77.772 20.418,78.222 20.418,78.762 C20.418,79.302 20.598,79.77 20.958,80.148 C21.678,80.886 22.866,80.886 23.586,80.148 C23.946,79.77 24.126,79.302 24.126,78.762 C24.126,78.222 23.946,77.772 23.586,77.394 C22.866,76.62 21.678,76.62 20.958,77.394 Z M32.046,78.69 L32.046,82.2 C32.046,83.28 31.326,84 30.246,84 C29.166,84 28.446,83.28 28.446,82.2 L28.446,75.288 C28.446,74.208 29.166,73.488 30.246,73.488 C30.984,73.488 31.524,73.776 31.83,74.352 C32.676,73.632 33.648,73.272 34.746,73.272 C37.464,73.272 38.814,74.982 38.814,78.402 L38.814,82.2 C38.814,83.28 38.094,84 37.014,84 C35.934,84 35.214,83.28 35.214,82.2 L35.214,78.564 C35.214,77.502 34.602,76.818 33.81,76.818 C32.856,76.818 32.046,77.664 32.046,78.69 Z M48.03,75.288 C48.03,76.35 47.13,77.196 45.978,77.196 C45.528,77.196 45.042,77.07 44.52,76.818 C43.998,76.566 43.638,76.44 43.44,76.44 C43.17,76.44 43.026,76.548 43.026,76.782 C43.026,77.07 43.89,77.232 44.97,77.502 C46.518,77.79 48.552,78.6 48.534,80.634 C48.534,83.028 46.932,84.234 43.728,84.234 C42.918,84.234 42.018,84.108 41.01,83.82 C40.02,83.532 39.3,82.884 39.3,82.038 C39.3,81.552 39.462,81.12 39.768,80.706 C40.092,80.292 40.506,80.076 40.992,80.076 C41.406,80.076 42.018,80.238 42.81,80.58 C43.62,80.922 44.142,81.084 44.394,81.084 C44.736,81.084 44.916,80.958 44.916,80.706 C44.916,80.274 43.566,80.238 42.18,79.824 C40.83,79.428 39.462,78.582 39.462,76.692 C39.462,74.388 41.046,73.272 43.782,73.272 C44.646,73.272 45.546,73.38 46.464,73.668 C47.4,73.938 48.03,74.514 48.03,75.288 Z M49.164,82.164 L49.164,73.848 C49.164,71.742 50.298,70.662 52.296,70.662 C53.214,70.662 53.952,70.896 54.51,71.364 C55.068,71.814 55.536,72.732 55.914,74.1 C56.22,75.216 56.454,76.206 56.58,77.088 C56.706,76.206 56.94,75.216 57.246,74.1 C57.624,72.732 58.092,71.814 58.65,71.364 C59.208,70.896 59.946,70.662 60.864,70.662 C62.862,70.662 63.996,71.742 63.996,73.848 L63.996,82.164 C63.996,83.226 63.222,84 62.196,84 C61.17,84 60.396,83.226 60.378,82.164 L60.378,75.342 L58.596,81.084 C58.218,82.38 57.57,82.812 56.58,82.812 C55.59,82.812 54.942,82.38 54.564,81.084 L52.764,75.342 L52.764,82.164 C52.764,83.226 51.99,84 50.964,84 C49.938,84 49.164,83.226 49.164,82.164 Z M70.17,73.308 C71.736,73.308 73.05,73.848 74.112,74.91 C75.174,75.972 75.714,77.25 75.714,78.762 C75.714,80.274 75.174,81.57 74.112,82.632 C73.05,83.694 71.736,84.216 70.17,84.216 C68.622,84.216 67.308,83.694 66.228,82.632 C65.166,81.57 64.626,80.274 64.626,78.762 C64.626,77.25 65.166,75.972 66.228,74.91 C67.308,73.848 68.622,73.308 70.17,73.308 Z M68.856,77.394 C68.496,77.772 68.316,78.222 68.316,78.762 C68.316,79.302 68.496,79.77 68.856,80.148 C69.576,80.886 70.764,80.886 71.484,80.148 C71.844,79.77 72.024,79.302 72.024,78.762 C72.024,78.222 71.844,77.772 71.484,77.394 C70.764,76.62 69.576,76.62 68.856,77.394 Z M76.344,72.462 C76.344,71.382 77.064,70.662 78.144,70.662 C79.224,70.662 79.944,71.382 79.944,72.462 L79.944,74.244 C80.79,73.596 81.708,73.272 82.734,73.272 C84.192,73.272 85.326,73.812 86.172,74.892 C87.018,75.972 87.432,77.268 87.432,78.762 C87.432,80.256 87.018,81.552 86.172,82.632 C85.326,83.712 84.192,84.252 82.734,84.252 C81.582,84.252 80.574,83.892 79.692,83.172 C79.386,83.73 78.882,84 78.144,84 C77.064,84 76.344,83.28 76.344,82.2 L76.344,72.462 Z M83.112,77.394 C82.392,76.62 81.204,76.62 80.484,77.394 C80.124,77.772 79.944,78.222 79.944,78.762 C79.944,79.302 80.124,79.77 80.484,80.148 C81.204,80.886 82.392,80.886 83.112,80.148 C83.472,79.77 83.652,79.302 83.652,78.762 C83.652,78.222 83.472,77.772 83.112,77.394 Z M88.584,72.282 C87.882,71.562 87.882,70.446 88.584,69.744 C89.304,69.024 90.42,69.024 91.122,69.744 C91.842,70.446 91.842,71.562 91.122,72.282 C90.42,72.984 89.304,72.984 88.584,72.282 Z M91.662,75.288 L91.662,82.2 C91.662,83.28 90.942,84 89.862,84 C88.782,84 88.062,83.28 88.062,82.2 L88.062,75.288 C88.062,74.208 88.782,73.488 89.862,73.488 C90.942,73.488 91.662,74.208 91.662,75.288 Z M92.382,82.236 L92.382,72.462 C92.382,71.382 93.102,70.662 94.182,70.662 C95.262,70.662 95.982,71.382 95.982,72.462 L95.982,82.236 C95.982,83.316 95.262,84.036 94.182,84.036 C93.102,84.036 92.382,83.316 92.382,82.236 Z M106.152,75.234 C105.45,74.46 104.568,74.064 103.488,74.064 C102.588,74.064 101.814,74.388 101.166,75.036 C100.536,75.666 100.212,76.44 100.212,77.358 C100.212,78.258 100.536,79.032 101.166,79.68 C101.814,80.31 102.588,80.634 103.488,80.634 C104.55,80.634 105.432,80.256 106.152,79.518 C106.89,78.726 107.916,78.726 108.69,79.5 C109.464,80.274 109.482,81.282 108.708,82.074 C107.484,83.37 105.558,84.234 103.488,84.234 C101.598,84.234 99.978,83.568 98.628,82.218 C97.278,80.868 96.612,79.248 96.612,77.358 C96.612,75.468 97.278,73.848 98.628,72.498 C99.978,71.148 101.598,70.464 103.488,70.464 C105.576,70.464 107.502,71.382 108.744,72.75 C109.482,73.542 109.482,74.55 108.708,75.288 C107.934,76.026 106.872,76.026 106.152,75.234 Z M115.044,73.308 C116.61,73.308 117.924,73.848 118.986,74.91 C120.048,75.972 120.588,77.25 120.588,78.762 C120.588,80.274 120.048,81.57 118.986,82.632 C117.924,83.694 116.61,84.216 115.044,84.216 C113.496,84.216 112.182,83.694 111.102,82.632 C110.04,81.57 109.5,80.274 109.5,78.762 C109.5,77.25 110.04,75.972 111.102,74.91 C112.182,73.848 113.496,73.308 115.044,73.308 Z M113.73,77.394 C113.37,77.772 113.19,78.222 113.19,78.762 C113.19,79.302 113.37,79.77 113.73,80.148 C114.45,80.886 115.638,80.886 116.358,80.148 C116.718,79.77 116.898,79.302 116.898,78.762 C116.898,78.222 116.718,77.772 116.358,77.394 C115.638,76.62 114.45,76.62 113.73,77.394 Z M124.818,82.2 C124.818,83.28 124.098,84 123.018,84 C121.938,84 121.218,83.28 121.218,82.2 L121.218,75.288 C121.218,74.208 121.938,73.488 123.018,73.488 C123.756,73.488 124.26,73.758 124.566,74.316 C125.358,73.614 126.276,73.272 127.338,73.272 C128.796,73.272 129.84,73.794 130.47,74.856 C131.334,73.794 132.432,73.272 133.746,73.272 C136.338,73.272 137.634,74.982 137.634,78.402 L137.634,82.2 C137.634,83.28 136.914,84 135.834,84 C134.754,84 134.034,83.28 134.034,82.2 L134.034,78.564 C134.034,77.502 133.512,76.818 132.81,76.818 C131.946,76.818 131.226,77.664 131.226,78.69 L131.226,82.2 C131.226,83.28 130.506,84 129.426,84 C128.346,84 127.626,83.28 127.626,82.2 L127.626,78.564 C127.626,77.502 127.104,76.818 126.402,76.818 C125.538,76.818 124.818,77.664 124.818,78.69 L124.818,82.2 Z" id="TransMobilCom" fill="#414141"></path>
                <g id="noun_voice_75745" transform="translate(47.000000, 0.000000)" fill="#82A7C0" fill-rule="nonzero">
                    <path d="M2.13601448,16.7567801 C0.956036358,16.7567801 0,17.7361078 0,18.9427362 L0,32.0572638 C0,33.2644967 0.956036358,34.2426153 2.13601448,34.2426153 C3.31658348,34.2426153 4.27261984,33.2644967 4.27261984,32.0572638 L4.27261984,18.9427362 C4.27261984,17.7367123 3.31658348,16.7567801 2.13601448,16.7567801 Z M9.25783538,7.28571429 C8.07785726,7.28571429 7.1218209,8.26443744 7.1218209,9.47167038 L7.1218209,41.5289341 C7.1218209,42.7361671 8.07785726,43.7142857 9.25783538,43.7142857 C10.4384044,43.7142857 11.3944407,42.7361671 11.3944407,41.5289341 L11.3944407,9.47167038 C11.3938499,8.26504196 10.4378135,7.28571429 9.25783538,7.28571429 Z M16.3790654,0 C15.1990873,0 14.2424601,0.978723152 14.2424601,2.1859561 L14.2424601,48.8146484 C14.2424601,50.0218814 15.1990873,51 16.3790654,51 C17.5590435,51 18.5156708,50.0218814 18.5156708,48.8146484 L18.5156708,2.1859561 C18.5150799,0.978723152 17.5590435,0 16.3790654,0 Z M23.5002954,12.7506045 C22.3203173,12.7506045 21.3636901,13.7293277 21.3636901,14.9359561 L21.3636901,36.0646484 C21.3636901,37.2718814 22.3203173,38.25 23.5002954,38.25 C24.6796827,38.25 25.6363099,37.2718814 25.6363099,36.0646484 L25.6363099,14.9359561 C25.6363099,13.7293277 24.6796827,12.7506045 23.5002954,12.7506045 Z M30.6209346,0 C29.4415473,0 28.4849201,0.978723152 28.4849201,2.1859561 L28.4849201,48.8146484 C28.4849201,50.0218814 29.4415473,51 30.6209346,51 C31.8003218,51 32.7569491,50.0218814 32.7569491,48.8146484 L32.7569491,2.1859561 C32.7575399,0.978723152 31.8003218,0 30.6209346,0 Z M37.7427555,6.96428571 C36.5633682,6.96428571 35.606741,8.20927361 35.606741,9.74493812 L35.606741,41.2548974 C35.606741,42.7913309 36.5633682,44.0363188 37.7427555,44.0363188 C38.9215519,44.0363188 39.87877,42.7913309 39.87877,41.2548974 L39.87877,9.74493812 C39.87877,8.20927361 38.9215519,6.96428571 37.7427555,6.96428571 Z M44.8639855,17.1213077 C43.6845983,17.1213077 42.7273802,18.1006353 42.7273802,19.3072638 L42.7273802,31.6933408 C42.7273802,32.9005737 43.6845983,33.8786923 44.8639855,33.8786923 C46.0433728,33.8786923 47,32.9005737 47,31.6927362 L47,19.3072638 C47,18.1006353 46.0433728,17.1213077 44.8639855,17.1213077 Z" id="Shape"></path>
                </g>
            </g>
        </g>
    </g>
</svg>